Input #0, mov,mp4,m4a,3gp,3g2,mj2, from '/home/hbattu/projects/huberman-gpt/huberman-audio/mp3/tmp6z4yvf7i.mp4':
  Metadata:
    major_brand     : dash
    minor_version   : 0
    compatible_brands: iso6mp41
    creation_time   : 2022-04-15T21:43:34.000000Z
  Duration: 02:59:21.94, start: 0.000000, bitrate: 129 kb/s
    Stream #0:0(eng): Audio: aac (LC) (mp4a / 0x6134706D), 44100 Hz, stereo, fltp, 0 kb/s (default)
    Metadata:
      creation_time   : 2022-04-15T21:43:34.000000Z
      handler_name    : ISO Media file produced by Google Inc.
Stream mapping:
  Stream #0:0 -> #0:0 (aac (native) -> mp3 (libmp3lame))
Press [q] to stop, [?] for help
[graph_0_in_0_0 @ 0x55594b4574c0] tb:1/44100 samplefmt:fltp samplerate:44100 chlayout:0x3
Output #0, mp3, to '../huberman-audio/mp3/ncSoor2Iw8k.mp3':
  Metadata:
    major_brand     : dash
    minor_version   : 0
    compatible_brands: iso6mp41
    TSSE            : Lavf58.29.100
    Stream #0:0(eng): Audio: mp3 (libmp3lame), 44100 Hz, stereo, fltp, delay 1105 (default)
    Metadata:
      creation_time   : 2022-04-15T21:43:34.000000Z
      handler_name    : ISO Media file produced by Google Inc.
      encoder         : Lavc58.54.100 libmp3lame
No more output streams to write to, finishing.
size=  168156kB time=02:59:21.95 bitrate= 128.0kbits/s speed=82.3x    
[AVIOContext @ 0x55594b33f900] Statistics: 0 seeks, 251 writeouts
video:0kB audio:168156kB subtitle:0kB other streams:0kB global headers:0kB muxing overhead: 0.000201%
Input file #0 (/home/hbattu/projects/huberman-gpt/huberman-audio/mp3/tmp6z4yvf7i.mp4):
  Input stream #0:0 (audio): 463478 packets read (172191010 bytes); 463478 frames decoded (474601472 samples); 
  Total: 463478 packets (172191010 bytes) demuxed
Output file #0 (../huberman-audio/mp3/ncSoor2Iw8k.mp3):
  Output stream #0:0 (audio): 411981 frames encoded (474601472 samples); 411982 packets muxed (172191660 bytes); 
  Total: 411982 packets (172191660 bytes) muxed
[AVIOContext @ 0x55594b36bf00] Statistics: 2 seeks, 658 writeouts
[AVIOContext @ 0x55594b348880] Statistics: 174170634 bytes read, 0 seeks
